<?xml version="1.0" encoding="UTF-8"?>
<svg  xmlns="http://www.w3.org/2000/svg" version="1.1" viewBox="0 0 586.1 586.1">
  <rect x="3.6" y="3.6" width="578.8" height="578.8" rx="55.2" ry="55.2" fill="#000" stroke-width="0"/>
  <path d="M90.7,416.2v-223.3c0-4.1.3-8.1,1-12.2,3.9-22.2,21.6-86.6,96.2-98.3,0,0,54.4-6.8,95.6,34.5.6.6.6,1.6,0,2.2l-41.7,41.7c-.6.6-1.6.6-2.2,0-3.7-3.9-17.5-15.9-44.4-15.9s-40.4,35.3-41.2,38.3c0,.1,0,.3,0,.4v225.6c0,3.9,1,7.7,2.9,11.1,5,8.7,16.9,23.3,40.7,23.4,0,0,0,0,0,0,1,0,19.3,1.1,37.1-16.6l78.3-79.1c4.8-4.9,8-11.2,8.9-18h0c.2-1.4.3-2.8.3-4.2v-62.6c0-3.5-1-6.9-2.9-9.8-2.9-4.4-9.3-12.7-14.7-17.6-.7-.6-.7-1.6,0-2.2l44-44c.6-.6,1.5-.6,2.1-.1,4.9,4.1,22.5,19.2,33.3,47.3,2.4,6.3,3.3,13.4,3.3,20.6v67.5c0,22.8-8.5,44.9-24.1,61.7-1,1.1-2.1,2.3-3.3,3.4l-88.6,88.6c-26,26-63.8,37.2-99.6,28.5-6.6-1.6-13.4-3.9-20.4-7.1,0,0,0,0,0,0-1.1-.4-32.4-12.4-54.6-56.9-4.1-8.3-6.3-17.5-6.3-26.8Z" fill="#fff" stroke-width="0"/>
  <path d="M492.2,175.7v223.3c0,4.1-.3,8.1-1,12.2-3.9,22.2-21.6,86.6-96.2,98.3,0,0-54.4,6.8-95.6-34.5-.6-.6-.6-1.6,0-2.2l41.7-41.7c.6-.6,1.6-.6,2.2,0,3.7,3.9,17.5,15.9,44.4,15.9,30.7,0,40.4-35.3,41.2-38.3,0-.1,0-.3,0-.4v-225.6c0-3.9-1-7.7-2.9-11.1-5-8.7-16.9-23.3-40.7-23.4s0,0,0,0c-1,0-19.3-1.1-37.1,16.6l-78.3,79.1c-4.8,4.9-8,11.2-8.9,18h0c-.2,1.4-.3,2.8-.3,4.2v62.6c0,3.5,1,6.9,2.9,9.8,2.9,4.4,9.3,12.7,14.7,17.6.7.6.7,1.6,0,2.2l-44,44c-.6.6-1.5.6-2.1.1-4.9-4.1-22.5-19.2-33.3-47.3-2.4-6.3-3.3-13.4-3.3-20.6v-67.5c0-22.8,8.5-44.9,24.1-61.7,1-1.1,2.1-2.3,3.3-3.4l88.6-88.6c26-26,63.8-37.2,99.6-28.5,6.6,1.6,13.4,3.9,20.4,7.1,0,0,0,0,0,0,1.1.4,32.4,12.4,54.6,56.9,4.1,8.3,6.3,17.5,6.3,26.8Z" fill="#fff" stroke-width="0"/>
</svg>
